<svg xmlns="http://www.w3.org/2000/svg" viewBox="0 0 1200 675" width="100%" height="100%">
  <defs>
    <linearGradient id="bgGrad_human-ingenuity-transport" x1="0%" y1="0%" x2="100%" y2="100%">
      <stop offset="0%" stop-color="#047857" />
      <stop offset="100%" stop-color="#059669" />
    </linearGradient>
  </defs>
  
          <!-- City Street & Bike Lane Background -->
          <rect width="1200" height="675" fill="#e0f2fe" />
          <!-- City Buildings Skyline -->
          <rect x="100" y="100" width="180" height="300" fill="#94a3b8" />
          <rect x="320" y="60" width="220" height="340" fill="#64748b" />
          <rect x="700" y="120" width="190" height="280" fill="#94a3b8" />
          <rect x="930" y="80" width="200" height="320" fill="#475569" />
          <!-- Road & Green Bike Lane -->
          <rect x="0" y="400" width="1200" height="275" fill="#334155" />
          <rect x="0" y="440" width="1200" height="90" fill="#16a34a" />
          <!-- Bike Lane Symbol -->
          <text x="200" y="500" font-size="40" fill="#ffffff">🚲 BIKE LANE</text>
          <!-- Eco Bus -->
          <rect x="700" y="350" width="380" height="130" rx="16" fill="#0284c7" />
          <text x="890" y="420" font-size="45" text-anchor="middle">🚌 ECO BUS</text>
          <!-- Electric Scooter & Helmet Cyclist Graphic -->
          <text x="450" y="490" font-size="65">🛴</text>
          <text x="600" y="490" font-size="65">🚴‍♂️</text>
        
  <!-- Header Overlay -->
  <rect x="30" y="30" width="340" height="38" rx="19" fill="#0f172a" opacity="0.85" />
  <text x="50" y="55" font-family="sans-serif" font-size="14" font-weight="bold" fill="#e2e8f0" letter-spacing="1">
    HUMAN INGENUITY
  </text>
  <!-- Footer Scene Banner Overlay -->
  <rect x="30" y="575" width="1140" height="70" rx="14" fill="#0f172a" opacity="0.9" />
  <text x="55" y="602" font-family="sans-serif" font-size="13" font-weight="bold" fill="#c084fc" letter-spacing="1">
    ESCENA DEL ESTIMULO:
  </text>
  <text x="55" y="628" font-family="sans-serif" font-size="17" font-weight="600" fill="#ffffff">
    Una calle concurrida de la ciudad con patinetes eléctricos, bicicletas y un autobús público, con ciclistas que llevan casco.
  </text>
</svg>