<svg xmlns="http://www.w3.org/2000/svg" viewBox="0 0 1200 675" width="100%" height="100%">
  <defs>
    <linearGradient id="bgGrad_sharing-planet-environment" x1="0%" y1="0%" x2="100%" y2="100%">
      <stop offset="0%" stop-color="#0f766e" />
      <stop offset="100%" stop-color="#047857" />
    </linearGradient>
  </defs>
  
          <!-- Ocean & Beach Coastline Background -->
          <rect width="1200" height="675" fill="#fef3c7" />
          <path d="M 0 0 L 1200 0 L 1200 280 Q 600 350 0 280 Z" fill="#0284c7" />
          <!-- Ocean Waves -->
          <path d="M 0 280 Q 300 320 600 280 T 1200 280" fill="none" stroke="#38bdf8" stroke-width="8" />
          <!-- Volunteers Cleaning Plastic -->
          <circle cx="350" cy="450" r="40" fill="#16a34a" />
          <text x="350" y="445" font-size="32" text-anchor="middle">🧹</text>
          <circle cx="650" cy="450" r="40" fill="#059669" />
          <text x="650" y="445" font-size="32" text-anchor="middle">🚮</text>
          <!-- Recycling Bins -->
          <g transform="translate(850, 360)">
            <rect x="0" y="0" width="100" height="160" rx="10" fill="#2563eb" />
            <text x="50" y="60" font-weight="bold" font-size="16" fill="#ffffff" text-anchor="middle">PLÁSTICO</text>
            <text x="50" y="110" font-size="35" text-anchor="middle">♻️</text>
          </g>
          <g transform="translate(980, 360)">
            <rect x="0" y="0" width="100" height="160" rx="10" fill="#16a34a" />
            <text x="50" y="60" font-weight="bold" font-size="16" fill="#ffffff" text-anchor="middle">RECICLAJE</text>
            <text x="50" y="110" font-size="35" text-anchor="middle">🏖️</text>
          </g>
        
  <!-- Header Overlay -->
  <rect x="30" y="30" width="340" height="38" rx="19" fill="#0f172a" opacity="0.85" />
  <text x="50" y="55" font-family="sans-serif" font-size="14" font-weight="bold" fill="#e2e8f0" letter-spacing="1">
    SHARING THE PLANET
  </text>
  <!-- Footer Scene Banner Overlay -->
  <rect x="30" y="575" width="1140" height="70" rx="14" fill="#0f172a" opacity="0.9" />
  <text x="55" y="602" font-family="sans-serif" font-size="13" font-weight="bold" fill="#c084fc" letter-spacing="1">
    ESCENA DEL ESTIMULO:
  </text>
  <text x="55" y="628" font-family="sans-serif" font-size="17" font-weight="600" fill="#ffffff">
    Un grupo de personas recogiendo residuos de plástico en una playa, con contenedores de reciclaje cerca.
  </text>
</svg>